<mxfile host="app.diagrams.net" modified="2020-10-25T03:45:43.462Z" agent="5.0 (Windows NT 10.0; Win64; x64) AppleWebKit/537.36 (KHTML, like Gecko) Chrome/86.0.4240.111 Safari/537.36" etag="3HN1amTBUZRuivCPfJ1s" version="13.8.2" type="github">
  <diagram id="P_IlKrpKy8XU2x5JV2zW" name="Page-1">
    <mxGraphModel dx="1422" dy="1894" grid="1" gridSize="10" guides="1" tooltips="1" connect="1" arrows="1" fold="1" page="1" pageScale="1" pageWidth="850" pageHeight="1100" math="0" shadow="0">
      <root>
        <mxCell id="0" />
        <mxCell id="1" parent="0" />
        <mxCell id="mg66CrbLclxoDYNZEBj5-54" value="" style="rounded=0;whiteSpace=wrap;html=1;fontColor=#0F17FF;rotation=90;" vertex="1" parent="1">
          <mxGeometry x="550" y="137.58" width="735.71" height="324.3" as="geometry" />
        </mxCell>
        <mxCell id="mg66CrbLclxoDYNZEBj5-53" value="" style="rounded=0;whiteSpace=wrap;html=1;fontColor=#0F17FF;rotation=90;" vertex="1" parent="1">
          <mxGeometry x="219.42" y="137.58" width="735.71" height="324.3" as="geometry" />
        </mxCell>
        <mxCell id="mg66CrbLclxoDYNZEBj5-51" value="" style="rounded=1;whiteSpace=wrap;html=1;fontColor=#0F17FF;rotation=90;" vertex="1" parent="1">
          <mxGeometry x="574.67" y="155.07" width="686.37" height="296.75" as="geometry" />
        </mxCell>
        <mxCell id="mg66CrbLclxoDYNZEBj5-50" value="" style="rounded=1;whiteSpace=wrap;html=1;fontColor=#0F17FF;rotation=90;" vertex="1" parent="1">
          <mxGeometry x="247.92" y="158.1" width="686.37" height="291.82" as="geometry" />
        </mxCell>
        <mxCell id="mg66CrbLclxoDYNZEBj5-23" value="" style="aspect=fixed;perimeter=ellipsePerimeter;html=1;align=center;shadow=0;dashed=0;spacingTop=3;image;image=img/lib/active_directory/internet_globe.svg;" vertex="1" parent="1">
          <mxGeometry x="590" y="-10" width="70" height="70" as="geometry" />
        </mxCell>
        <mxCell id="mg66CrbLclxoDYNZEBj5-1" value="" style="verticalLabelPosition=bottom;html=1;verticalAlign=top;align=center;strokeColor=none;fillColor=#00BEF2;shape=mxgraph.azure.laptop;pointerEvents=1;" vertex="1" parent="1">
          <mxGeometry x="60" y="380" width="210" height="90" as="geometry" />
        </mxCell>
        <mxCell id="mg66CrbLclxoDYNZEBj5-2" value="" style="aspect=fixed;perimeter=ellipsePerimeter;html=1;align=center;shadow=0;dashed=0;spacingTop=3;image;image=img/lib/active_directory/internet_cloud.svg;" vertex="1" parent="1">
          <mxGeometry x="80" y="130" width="158.73" height="100" as="geometry" />
        </mxCell>
        <mxCell id="mg66CrbLclxoDYNZEBj5-11" value="" style="verticalLabelPosition=bottom;html=1;verticalAlign=top;align=center;strokeColor=none;fillColor=#00BEF2;shape=mxgraph.azure.azure_load_balancer;" vertex="1" parent="1">
          <mxGeometry x="280" y="85" width="135" height="40" as="geometry" />
        </mxCell>
        <mxCell id="mg66CrbLclxoDYNZEBj5-12" value="" style="shape=image;html=1;verticalAlign=top;verticalLabelPosition=bottom;labelBackgroundColor=#ffffff;imageAspect=0;aspect=fixed;image=https://cdn4.iconfinder.com/data/icons/social-network-round-gloss-shine/128/docker-icon_copy.png;fontColor=#0F17FF;" vertex="1" parent="1">
          <mxGeometry x="910" y="160" width="128" height="128" as="geometry" />
        </mxCell>
        <mxCell id="mg66CrbLclxoDYNZEBj5-13" value="" style="aspect=fixed;perimeter=ellipsePerimeter;html=1;align=center;shadow=0;dashed=0;spacingTop=3;image;image=img/lib/active_directory/internet_globe.svg;" vertex="1" parent="1">
          <mxGeometry x="850" y="123.25" width="70" height="70" as="geometry" />
        </mxCell>
        <mxCell id="mg66CrbLclxoDYNZEBj5-14" value="" style="shape=image;html=1;verticalAlign=top;verticalLabelPosition=bottom;labelBackgroundColor=#ffffff;imageAspect=0;aspect=fixed;image=https://cdn4.iconfinder.com/data/icons/social-network-round-gloss-shine/128/docker-icon_copy.png" vertex="1" parent="1">
          <mxGeometry x="600" y="51.99999999999997" width="128" height="128" as="geometry" />
        </mxCell>
        <mxCell id="mg66CrbLclxoDYNZEBj5-15" value="" style="verticalLabelPosition=bottom;html=1;verticalAlign=top;align=center;strokeColor=none;fillColor=#00BEF2;shape=mxgraph.azure.virtual_network;pointerEvents=1;" vertex="1" parent="1">
          <mxGeometry x="130" y="540" width="90" height="60" as="geometry" />
        </mxCell>
        <mxCell id="mg66CrbLclxoDYNZEBj5-20" value="" style="aspect=fixed;perimeter=ellipsePerimeter;html=1;align=center;shadow=0;dashed=0;spacingTop=3;image;image=img/lib/active_directory/generic_server.svg;fontColor=#0F17FF;" vertex="1" parent="1">
          <mxGeometry x="500" y="29.999999999999993" width="118" height="210.71" as="geometry" />
        </mxCell>
        <mxCell id="mg66CrbLclxoDYNZEBj5-21" value="" style="aspect=fixed;perimeter=ellipsePerimeter;html=1;align=center;shadow=0;dashed=0;spacingTop=3;image;image=img/lib/active_directory/generic_server.svg;fontColor=#0F17FF;" vertex="1" parent="1">
          <mxGeometry x="802" y="167.9" width="118" height="210.71" as="geometry" />
        </mxCell>
        <mxCell id="mg66CrbLclxoDYNZEBj5-22" value="" style="aspect=fixed;perimeter=ellipsePerimeter;html=1;align=center;shadow=0;dashed=0;spacingTop=3;image;image=img/lib/active_directory/generic_server.svg;fontColor=#0F17FF;" vertex="1" parent="1">
          <mxGeometry x="510" y="348.64" width="118" height="210.71" as="geometry" />
        </mxCell>
        <mxCell id="mg66CrbLclxoDYNZEBj5-34" value="Resource Group" style="text;html=1;resizable=0;autosize=1;align=center;verticalAlign=middle;points=[];fillColor=none;strokeColor=none;rounded=0;fontColor=#0F17FF;" vertex="1" parent="1">
          <mxGeometry x="480" y="-30" width="100" height="20" as="geometry" />
        </mxCell>
        <mxCell id="mg66CrbLclxoDYNZEBj5-35" value="Host" style="whiteSpace=wrap;html=1;fontColor=#0F17FF;" vertex="1" parent="1">
          <mxGeometry x="105" y="487.38" width="120" height="30" as="geometry" />
        </mxCell>
        <mxCell id="mg66CrbLclxoDYNZEBj5-36" value="Load Balancer&amp;nbsp;" style="whiteSpace=wrap;html=1;fontColor=#0F17FF;" vertex="1" parent="1">
          <mxGeometry x="287.5" y="56.37" width="120" height="25" as="geometry" />
        </mxCell>
        <mxCell id="mg66CrbLclxoDYNZEBj5-37" value="Internet" style="text;html=1;align=center;verticalAlign=middle;resizable=0;points=[];autosize=1;fontColor=#0F17FF;" vertex="1" parent="1">
          <mxGeometry x="125" y="90" width="60" height="20" as="geometry" />
        </mxCell>
        <mxCell id="mg66CrbLclxoDYNZEBj5-38" value="Firewall" style="text;html=1;align=center;verticalAlign=middle;resizable=0;points=[];autosize=1;fontColor=#0F17FF;" vertex="1" parent="1">
          <mxGeometry x="446.02" y="85" width="60" height="20" as="geometry" />
        </mxCell>
        <mxCell id="mg66CrbLclxoDYNZEBj5-39" value="Firewall" style="text;html=1;align=center;verticalAlign=middle;resizable=0;points=[];autosize=1;fontColor=#0F17FF;" vertex="1" parent="1">
          <mxGeometry x="430" y="-60" width="60" height="20" as="geometry" />
        </mxCell>
        <mxCell id="mg66CrbLclxoDYNZEBj5-40" value="JumpBox&lt;br&gt;Public IP-13.68.147.172" style="whiteSpace=wrap;html=1;fontColor=#0F17FF;" vertex="1" parent="1">
          <mxGeometry x="500" y="548" width="150" height="42" as="geometry" />
        </mxCell>
        <mxCell id="mg66CrbLclxoDYNZEBj5-41" value="Web-01&lt;br&gt;10.0.0.4" style="whiteSpace=wrap;html=1;fontColor=#0F17FF;" vertex="1" parent="1">
          <mxGeometry x="499" y="246.63" width="120" height="41.37" as="geometry" />
        </mxCell>
        <mxCell id="mg66CrbLclxoDYNZEBj5-42" value="Elk&lt;br&gt;Public IP-13.92.199.146&lt;br&gt;Private IP-10.0.1.4" style="whiteSpace=wrap;html=1;fontColor=#0F17FF;" vertex="1" parent="1">
          <mxGeometry x="786" y="371.3" width="150" height="50" as="geometry" />
        </mxCell>
        <mxCell id="mg66CrbLclxoDYNZEBj5-43" value="SSH" style="whiteSpace=wrap;html=1;fontColor=#0F17FF;" vertex="1" parent="1">
          <mxGeometry x="100" y="270" width="120" height="30" as="geometry" />
        </mxCell>
        <mxCell id="mg66CrbLclxoDYNZEBj5-44" value="DVWA" style="whiteSpace=wrap;html=1;fontColor=#0F17FF;" vertex="1" parent="1">
          <mxGeometry x="568" y="143.25" width="50" height="30" as="geometry" />
        </mxCell>
        <mxCell id="mg66CrbLclxoDYNZEBj5-45" value="Docker" style="whiteSpace=wrap;html=1;fontColor=#0F17FF;" vertex="1" parent="1">
          <mxGeometry x="658" y="32" width="70" height="24.37" as="geometry" />
        </mxCell>
        <mxCell id="mg66CrbLclxoDYNZEBj5-46" value="Docker" style="whiteSpace=wrap;html=1;fontColor=#0F17FF;" vertex="1" parent="1">
          <mxGeometry x="939" y="141.15" width="70" height="26.75" as="geometry" />
        </mxCell>
        <mxCell id="mg66CrbLclxoDYNZEBj5-47" value="Virtual Network" style="whiteSpace=wrap;html=1;fontColor=#0F17FF;" vertex="1" parent="1">
          <mxGeometry x="120" y="610" width="118.73" height="30" as="geometry" />
        </mxCell>
        <mxCell id="mg66CrbLclxoDYNZEBj5-49" value="SSH" style="whiteSpace=wrap;html=1;fontColor=#0F17FF;" vertex="1" parent="1">
          <mxGeometry x="498" y="310" width="120" height="30" as="geometry" />
        </mxCell>
        <mxCell id="mg66CrbLclxoDYNZEBj5-52" value="Management" style="whiteSpace=wrap;html=1;fontColor=#0F17FF;" vertex="1" parent="1">
          <mxGeometry x="780" y="-20" width="120" height="20" as="geometry" />
        </mxCell>
      </root>
    </mxGraphModel>
  </diagram>
</mxfile>
